<?xml version="1.0" encoding="UTF-8" standalone="no"?>
<!-- Favicon source. generate.sh bakes the glyphs to paths (browsers don't load
     JetBrains Mono for a favicon) → out/web/favicon.svg. Compact, minimal glow,
     tuned to read at 16-32px.

     Colors below are literal (SVG attrs can't reference CSS custom properties):
     #070709 = --bg, #52c98a = --success, #ff2d9b = --primary. Keep in sync with
     azula-docs/openspec/specs/design-system/design.md §3 and the STYLE :root in ./pages.ts. -->

<svg
   width="64"
   height="64"
   viewBox="0 0 64 64"
   version="1.1"
   id="svg2"
   xmlns="http://www.w3.org/2000/svg"
   xmlns:svg="http://www.w3.org/2000/svg">
  <defs
     id="defs2" />
  <rect
     x="0"
     y="0"
     width="64"
     height="64"
     rx="14"
     ry="14"
     fill="#070709"
     id="rect1" />
  <g
     font-family="JetBrains Mono, monospace"
     font-weight="700"
     id="g2">
    <path
       d="m 17.14399,40.96 4.81,-6.214 -4.914,-6.266 h 3.484 l 4.836,6.24 -4.836,6.24 z"
       id="text1"
       style="font-size:26px;text-anchor:end;fill:#52c98a"
       aria-label="›" />
    <path
       d="m 38.17,44.3 q -2.52,0 -3.99,-1.41 -1.44,-1.44 -1.44,-3.75 0,-1.62 0.75,-2.79 0.75,-1.17 2.13,-1.8 1.41,-0.66 3.3,-0.66 h 4.02 v -1.17 q 0,-1.2 -0.75,-1.83 -0.72,-0.66 -2.16,-0.66 -1.32,0 -2.13,0.51 -0.78,0.51 -0.84,1.44 h -3.6 q 0.12,-2.25 1.86,-3.6 1.77,-1.38 4.74,-1.38 3.15,0 4.89,1.47 1.74,1.47 1.74,4.14 V 44 h -3.66 v -3.15 h -0.6 l 0.66,-0.54 q 0,1.23 -0.6,2.13 -0.6,0.87 -1.71,1.38 -1.11,0.48 -2.61,0.48 z m 1.2,-3.06 q 1.65,0 2.61,-0.81 0.96,-0.81 0.96,-2.16 V 36.32 H 39.1 q -1.23,0 -1.95,0.69 -0.72,0.66 -0.72,1.77 0,1.11 0.75,1.8 0.78,0.66 2.19,0.66 z"
       id="text2"
       style="font-size:30px;fill:#ff2d9b"
       aria-label="a" />
  </g>
</svg>
